<svg width="2811" height="1019" viewBox="0 0 2811 1019" fill="none" xmlns="http://www.w3.org/2000/svg">
<rect width="2811" height="1019" rx="150" fill="#9FE7F5"/>
<path d="M1405.95 135.921C1398.02 137.906 1385.31 145.844 1378.17 153.386C1366.26 165.69 1364.67 169.659 1364.67 188.711C1364.67 223.64 1388.89 246.264 1426.2 246.264C1499.23 246.264 1513.91 152.989 1443.66 135.525C1424.61 130.762 1425.4 130.762 1405.95 135.921Z" fill="#100BA1"/>
<path d="M570.846 252.615C566.48 253.409 552.985 256.187 541.077 258.569C468.442 273.255 410.889 327.632 392.234 399.077C384.693 428.845 384.693 487.986 391.837 516.563C395.013 528.868 398.188 540.775 398.982 543.554C399.776 546.729 393.425 550.698 384.296 553.476C358.894 561.415 330.316 577.688 310.867 594.756C271.572 629.684 248.154 692.396 252.52 753.124C253.711 771.382 256.887 789.244 258.871 793.213C261.253 796.785 263.237 797.976 263.237 795.197C263.237 786.862 283.877 766.223 299.356 758.284C315.63 749.949 343.811 747.965 359.687 753.918C365.244 755.903 375.961 763.444 383.502 770.192L397.791 782.496L393.425 767.413C387.471 745.583 391.044 708.67 400.57 695.572C404.936 689.618 416.446 680.886 425.972 675.726C443.039 666.994 446.215 666.994 583.547 666.994H723.658V605.472V543.95H655.389C581.166 543.95 565.289 540.378 546.237 519.739C518.056 489.176 518.056 427.655 546.237 397.886C555.366 387.963 573.227 377.246 580.769 377.246C583.15 377.246 584.738 389.551 584.738 409V440.753H654.198H723.658L722.864 358.194L721.673 276.033L688.73 264.92C656.579 254.203 592.676 247.455 570.846 252.615Z" fill="#100BA1"/>
<path d="M884.409 269.282C798.278 295.082 749.855 356.604 744.695 446.703C738.741 552.679 797.881 631.268 900.682 653.099C934.817 660.243 972.127 660.64 1005.47 653.496C1019.76 650.32 1031.66 648.336 1032.46 649.13C1032.85 649.526 1031.27 657.068 1028.49 665.403C1022.53 682.867 1004.28 694.775 982.843 694.775H969.745V752.327V809.88H987.209C1036.03 809.88 1092.79 786.462 1120.97 755.106C1140.42 732.878 1155.1 702.713 1158.68 676.12L1161.06 657.068H1318.24H1475.81L1507.17 645.954C1543.29 633.253 1564.72 619.361 1588.14 593.958C1657.99 518.148 1649.66 372.083 1572.26 308.577C1533.76 277.221 1487.72 262.138 1428.98 262.138C1385.31 262.138 1357.93 267.298 1327.37 280.396C1258.3 310.958 1221.39 367.717 1217.02 448.688C1215.83 477.662 1217.02 493.142 1222.58 514.972L1230.12 543.947H1215.44C1207.1 543.947 1195.99 541.963 1190.43 539.184C1170.98 530.452 1166.61 518.148 1163.84 464.564C1159.87 383.594 1139.62 338.742 1090.01 301.432C1053.1 273.252 1026.11 265.313 961.807 263.726C918.543 262.535 903.46 263.726 884.409 269.282ZM993.56 383.197C1007.06 390.341 1024.12 408.599 1028.89 422.094C1036.43 441.543 1034.05 484.013 1024.92 503.462C1006.66 540.772 958.235 555.061 917.352 534.421C886.79 519.735 876.867 502.668 875.28 464.564C873.295 428.842 881.63 408.202 903.46 391.532C926.878 373.671 968.157 369.702 993.56 383.197ZM1469.86 385.578C1493.67 399.073 1503.2 417.728 1505.18 453.054C1506.77 492.348 1497.64 514.576 1473.43 530.849C1458.74 540.772 1452.79 541.963 1426.59 541.963C1392.46 541.963 1375.39 533.627 1358.32 508.622C1344.43 488.776 1342.45 440.749 1354.36 417.728C1374.99 377.64 1428.98 362.557 1469.86 385.578Z" fill="#100BA1"/>
<path d="M1731.82 317.708V373.276H1773.5C1830.65 373.276 1852.09 378.436 1870.34 396.694C1912.42 438.767 1896.14 525.295 1842.96 539.98C1835.42 541.965 1792.95 543.949 1748.89 543.949H1668.31V601.502V659.055H1754.84C1854.47 659.055 1881.85 654.689 1925.52 632.858C1951.71 619.76 1954.89 618.966 1961.24 624.126C1987.43 647.544 2040.22 660.642 2095 657.864C2140.64 655.482 2166.44 648.338 2193.43 631.271L2212.48 619.363L2241.06 633.255C2329.57 676.916 2446.27 662.627 2507.79 601.502C2528.43 580.863 2549.07 544.346 2555.42 518.15L2558.2 506.243L2548.67 514.578C2515.73 545.14 2460.95 542.362 2434.36 509.418C2428.8 502.67 2424.83 500.289 2423.64 503.067C2411.74 536.805 2356.17 554.269 2317.27 536.408C2285.12 522.119 2269.64 492.351 2272.42 450.675C2275.2 403.839 2305.36 376.055 2353.39 375.658C2372.44 375.658 2381.17 378.039 2395.86 386.771C2406.18 392.725 2414.51 398.679 2414.51 400.266C2414.51 401.854 2417.29 406.617 2420.47 410.586C2426.42 418.128 2426.82 418.128 2439.52 405.823C2471.67 374.467 2514.54 373.673 2547.08 404.236L2558.59 414.952L2555.82 403.045C2549.86 375.658 2525.65 334.379 2503.82 314.533C2464.13 278.017 2418.09 262.14 2352.99 262.14C2220.03 262.14 2141.04 339.935 2140.64 471.711C2140.64 526.882 2127.15 543.949 2083.09 543.949C2056.89 543.949 2039.83 536.011 2032.29 520.928C2029.11 514.975 2025.54 490.763 2024.35 464.567C2019.58 374.467 1989.82 320.09 1926.31 286.352C1891.38 267.697 1861.21 262.14 1792.55 262.14H1731.82V317.708Z" fill="#100BA1"/>
<path d="M2462.94 403.442C2441.5 414.555 2432.37 430.829 2432.37 459.407C2432.37 499.495 2454.6 522.119 2493.89 522.119C2529.62 522.119 2553.04 501.083 2556.61 465.36C2558.59 442.736 2548.67 420.509 2530.41 407.014C2516.12 396.694 2480.4 394.71 2462.94 403.442Z" fill="#100BA1"/>
<path d="M310.866 766.618C253.314 789.639 260.458 878.151 320.392 888.074C367.228 895.615 405.332 855.924 393.821 811.866C383.899 775.35 344.207 753.52 310.866 766.618Z" fill="#100BA1"/>
</svg>
