<svg width="51" height="51" viewBox="0 0 51 51" fill="none" xmlns="http://www.w3.org/2000/svg">
<rect width="51" height="51" rx="5" fill="#0A708D"/>
<path d="M37.0606 30.776L32.8187 30.3079C32.3199 30.2512 31.8144 30.3046 31.34 30.464C30.8656 30.6234 30.4348 30.8846 30.0799 31.228L27.007 34.1985C22.2665 31.8672 18.4132 28.1424 16.0015 23.5598L19.0911 20.5732C19.8092 19.879 20.1599 18.9104 20.043 17.9256L19.5587 13.8574C19.4644 13.0698 19.0735 12.3432 18.4606 11.8162C17.8477 11.2892 17.0556 10.9987 16.2353 11H13.3462C11.4591 11 9.88923 12.5175 10.0061 14.3417C10.8912 28.1285 22.2975 39.1385 36.5429 39.9941C38.43 40.1071 39.9998 38.5896 39.9998 36.7653V33.9725C40.0165 32.342 38.7473 30.9697 37.0606 30.776Z" fill="white"/>
</svg>
